<?xml version="1.0" encoding="iso-8859-1"?>
<!-- Generator: Adobe Illustrator 16.0.0, SVG Export Plug-In . SVG Version: 6.00 Build 0)  -->
<!DOCTYPE svg PUBLIC "-//W3C//DTD SVG 1.1//EN" "http://www.w3.org/Graphics/SVG/1.1/DTD/svg11.dtd">
<svg version="1.1" id="Capa_1" xmlns="http://www.w3.org/2000/svg" xmlns:xlink="http://www.w3.org/1999/xlink" x="0px" y="0px"
	 width="62.2px" height="62.2px" viewBox="0 0 62.2 62.2" style="enable-background:new 0 0 62.2 62.2;" xml:space="preserve">
<g>
	<g>
		<path d="M61.207,55.36L47.773,41.925c2.864-4.192,4.543-9.262,4.543-14.712c0-14.424-11.734-26.16-26.159-26.16
			C11.734,1.053,0,12.79,0,27.213c0,14.423,11.734,26.158,26.158,26.158c6.53,0,12.502-2.408,17.09-6.379L56.41,60.155
			c0.662,0.662,1.529,0.992,2.398,0.992c0.866,0,1.735-0.33,2.397-0.992C62.531,58.833,62.531,56.682,61.207,55.36z M40.921,44.524
			c-3.979,3.397-9.133,5.457-14.766,5.457c-12.553,0-22.767-10.215-22.767-22.768c0-12.555,10.214-22.768,22.767-22.768
			c12.557,0,22.77,10.213,22.77,22.768c0,4.596-1.373,8.876-3.729,12.46C44.007,41.487,42.566,43.122,40.921,44.524z"/>
		<path d="M39.08,23.396l-2.409-1.855l-0.653-0.504v-5.79c0-0.819-0.666-1.483-1.484-1.483s-1.482,0.664-1.482,1.483v3.505
			L26.9,14.017c-0.436-0.336-1.042-0.336-1.478,0l-9.916,7.634l-2.419,1.862l-2.809,2.163c-0.53,0.408-0.629,1.169-0.221,1.699
			c0.408,0.529,1.169,0.629,1.699,0.221l1.33-1.024v12.88c0,0.67,0.543,1.211,1.212,1.211h1.174H37.87
			c0.67,0,1.213-0.541,1.213-1.211V26.455l1.479,1.141c0.222,0.17,0.479,0.252,0.736,0.252c0.363,0,0.725-0.162,0.961-0.472
			c0.41-0.531,0.312-1.291-0.219-1.7L39.08,23.396z"/>
	</g>
</g>
<g>
</g>
<g>
</g>
<g>
</g>
<g>
</g>
<g>
</g>
<g>
</g>
<g>
</g>
<g>
</g>
<g>
</g>
<g>
</g>
<g>
</g>
<g>
</g>
<g>
</g>
<g>
</g>
<g>
</g>
</svg>
